<?xml version="1.0" encoding="UTF-8"?>
<svg id="Layer_2" data-name="Layer 2" xmlns="http://www.w3.org/2000/svg" viewBox="0 0 771.35 116.41">
  <defs>
    <style>
      .cls-1 {
        fill: #4881ff;
      }

      .cls-1, .cls-2 {
        stroke-width: 0px;
      }

      .cls-2 {
        fill: #00102d;
      }
    </style>
  </defs>
  <g id="Layer_1-2" data-name="Layer 1">
    <g>
      <g>
        <g>
          <polygon class="cls-1" points="19.43 41.47 19.43 19.43 41.47 19.43 41.47 0 0 0 0 41.47 19.43 41.47"/>
          <polygon class="cls-1" points="53.12 19.43 75.17 19.43 75.17 41.47 94.59 41.47 94.59 0 53.12 0 53.12 19.43"/>
          <polygon class="cls-1" points="41.47 75.17 19.43 75.17 19.43 53.12 0 53.12 0 94.59 41.47 94.59 41.47 75.17"/>
          <polygon class="cls-1" points="75.17 53.12 75.17 75.17 53.12 75.17 53.12 94.59 94.59 94.59 94.59 53.12 75.17 53.12"/>
        </g>
        <rect class="cls-1" x="32.53" y="32.53" width="29.54" height="29.54"/>
      </g>
      <g>
        <path class="cls-2" d="M166.39,7.22v10.66h-33.8v23.49h26.35v10.66h-26.35v34.83h-13.06V7.22h46.86Z"/>
        <path class="cls-2" d="M184.03,83.81c-4.81-2.71-8.59-6.53-11.34-11.46-2.75-4.93-4.12-10.63-4.12-17.13s1.41-12.11,4.24-17.07c2.83-4.96,6.68-8.78,11.57-11.46,4.89-2.67,10.35-4.01,16.38-4.01s11.5,1.34,16.38,4.01c4.89,2.67,8.75,6.49,11.57,11.46,2.83,4.97,4.24,10.66,4.24,17.07s-1.45,12.11-4.35,17.07c-2.9,4.97-6.86,8.81-11.86,11.52-5,2.71-10.52,4.07-16.56,4.07s-11.34-1.35-16.15-4.07ZM209.64,74.13c2.94-1.6,5.33-4.01,7.16-7.22,1.83-3.21,2.75-7.1,2.75-11.69s-.88-8.46-2.64-11.63c-1.76-3.17-4.09-5.56-6.99-7.16-2.9-1.6-6.04-2.41-9.4-2.41s-6.47.8-9.34,2.41c-2.86,1.6-5.14,3.99-6.82,7.16-1.68,3.17-2.52,7.05-2.52,11.63,0,6.8,1.74,12.05,5.21,15.75,3.48,3.71,7.85,5.56,13.12,5.56,3.36,0,6.51-.8,9.45-2.41Z"/>
        <path class="cls-2" d="M297.35,23.71v63.13h-13.06v-7.45c-2.06,2.6-4.75,4.64-8.08,6.13-3.32,1.49-6.86,2.24-10.6,2.24-4.97,0-9.42-1.03-13.35-3.09-3.93-2.06-7.03-5.12-9.28-9.17-2.25-4.05-3.38-8.94-3.38-14.66V23.71h12.95v35.18c0,5.65,1.41,9.99,4.24,13,2.82,3.02,6.68,4.52,11.57,4.52s8.76-1.51,11.63-4.52c2.86-3.02,4.3-7.35,4.3-13V23.71h13.06Z"/>
        <path class="cls-2" d="M354,25.78c3.93,2.06,7.01,5.12,9.22,9.17,2.21,4.05,3.32,8.94,3.32,14.67v37.24h-12.95v-35.29c0-5.65-1.41-9.99-4.24-13-2.83-3.02-6.68-4.52-11.57-4.52s-8.76,1.51-11.63,4.52c-2.86,3.02-4.3,7.35-4.3,13v35.29h-13.06V23.71h13.06v7.22c2.14-2.6,4.87-4.62,8.19-6.07,3.32-1.45,6.85-2.18,10.6-2.18,4.96,0,9.41,1.03,13.35,3.09Z"/>
        <path class="cls-2" d="M377.04,38.15c2.64-4.89,6.22-8.69,10.77-11.4,4.54-2.71,9.6-4.07,15.18-4.07,4.12,0,8.19.9,12.2,2.69,4.01,1.8,7.2,4.18,9.57,7.16V2.06h13.18v84.79h-13.18v-9.51c-2.14,3.06-5.1,5.58-8.88,7.56-3.78,1.99-8.12,2.98-13,2.98-5.5,0-10.52-1.39-15.07-4.18-4.55-2.79-8.13-6.68-10.77-11.69-2.64-5-3.95-10.67-3.95-17.01s1.32-11.95,3.95-16.84ZM422.06,43.88c-1.8-3.21-4.14-5.65-7.05-7.33-2.9-1.68-6.04-2.52-9.4-2.52s-6.49.82-9.4,2.46c-2.9,1.64-5.25,4.05-7.05,7.22-1.8,3.17-2.69,6.93-2.69,11.29s.9,8.17,2.69,11.46c1.79,3.29,4.16,5.79,7.1,7.51,2.94,1.72,6.05,2.58,9.34,2.58s6.49-.84,9.4-2.52c2.9-1.68,5.25-4.14,7.05-7.39,1.79-3.25,2.69-7.05,2.69-11.4s-.9-8.13-2.69-11.34Z"/>
        <path class="cls-2" d="M506.79,60.15h-48.24c.38,5.04,2.25,9.09,5.61,12.14,3.36,3.06,7.49,4.58,12.37,4.58,7.03,0,11.99-2.94,14.89-8.82h14.09c-1.91,5.81-5.37,10.56-10.37,14.26-5,3.71-11.21,5.56-18.62,5.56-6.04,0-11.44-1.35-16.21-4.07-4.77-2.71-8.52-6.53-11.23-11.46-2.71-4.93-4.07-10.63-4.07-17.13s1.32-12.2,3.95-17.13c2.64-4.93,6.34-8.72,11.11-11.4,4.77-2.67,10.25-4.01,16.44-4.01s11.27,1.3,15.93,3.9c4.66,2.6,8.29,6.24,10.89,10.94,2.6,4.7,3.89,10.1,3.89,16.21,0,2.37-.15,4.51-.46,6.42ZM493.61,49.61c-.08-4.81-1.8-8.67-5.16-11.57-3.36-2.9-7.52-4.35-12.49-4.35-4.51,0-8.36,1.43-11.57,4.3-3.21,2.87-5.12,6.74-5.73,11.63h34.94Z"/>
        <path class="cls-2" d="M535.03,25.38c3.17-1.79,6.93-2.69,11.29-2.69v13.52h-3.32c-5.12,0-8.99,1.3-11.63,3.89-2.64,2.6-3.95,7.1-3.95,13.52v33.23h-13.06V23.71h13.06v9.17c1.91-3.21,4.45-5.71,7.62-7.51Z"/>
        <path class="cls-2" d="M557.15,82.78c-4.55-3.32-7.09-7.85-7.62-13.58h8.25c.38,3.51,2.04,6.36,4.98,8.54,2.94,2.18,6.89,3.27,11.86,3.27,4.35,0,7.77-1.03,10.26-3.09,2.48-2.06,3.72-4.62,3.72-7.68,0-2.14-.69-3.89-2.06-5.27-1.38-1.37-3.11-2.46-5.21-3.27-2.1-.8-4.95-1.66-8.54-2.58-4.66-1.22-8.44-2.44-11.34-3.67-2.9-1.22-5.37-3.04-7.39-5.44-2.02-2.41-3.04-5.63-3.04-9.68,0-3.05.92-5.88,2.75-8.48,1.83-2.6,4.43-4.66,7.79-6.19,3.36-1.53,7.18-2.29,11.46-2.29,6.72,0,12.14,1.7,16.27,5.1,4.12,3.4,6.34,8.08,6.65,14.04h-8.02c-.23-3.67-1.66-6.63-4.3-8.88-2.64-2.25-6.24-3.38-10.83-3.38-4.05,0-7.33.96-9.85,2.86-2.52,1.91-3.78,4.28-3.78,7.1,0,2.45.74,4.45,2.23,6.02,1.49,1.57,3.34,2.79,5.56,3.67,2.21.88,5.19,1.85,8.94,2.92,4.51,1.22,8.1,2.41,10.77,3.55,2.67,1.15,4.96,2.83,6.87,5.04,1.91,2.22,2.9,5.16,2.98,8.82,0,3.36-.92,6.36-2.75,9-1.83,2.64-4.39,4.72-7.68,6.24-3.29,1.53-7.07,2.29-11.34,2.29-7.18,0-13.04-1.66-17.59-4.98Z"/>
        <path class="cls-2" d="M616.33,31.05v38.84c0,3.82.73,6.46,2.18,7.91,1.45,1.45,4.01,2.18,7.68,2.18h7.33v6.87h-8.59c-5.65,0-9.85-1.32-12.6-3.95-2.75-2.64-4.12-6.97-4.12-13V31.05h-8.71v-6.76h8.71v-15.7h8.13v15.7h17.19v6.76h-17.19Z"/>
        <path class="cls-2" d="M652.47,83.81c-4.7-2.64-8.4-6.38-11.11-11.23-2.71-4.85-4.07-10.52-4.07-17.01s1.38-12.16,4.12-17.02c2.75-4.85,6.49-8.59,11.23-11.23,4.73-2.64,10.04-3.95,15.93-3.95s11.21,1.32,15.98,3.95c4.77,2.64,8.52,6.38,11.23,11.23,2.71,4.85,4.07,10.52,4.07,17.02s-1.37,12.07-4.12,16.96c-2.75,4.89-6.53,8.65-11.34,11.29-4.81,2.64-10.16,3.95-16.04,3.95s-11.17-1.32-15.87-3.95ZM679.8,77.97c3.51-1.87,6.36-4.7,8.54-8.48,2.18-3.78,3.27-8.42,3.27-13.92s-1.07-10.14-3.21-13.92-4.97-6.61-8.48-8.48c-3.51-1.87-7.33-2.81-11.46-2.81s-7.95.94-11.46,2.81c-3.51,1.87-6.32,4.7-8.42,8.48-2.1,3.78-3.15,8.42-3.15,13.92s1.05,10.14,3.15,13.92c2.1,3.78,4.89,6.61,8.36,8.48,3.47,1.87,7.28,2.81,11.4,2.81s7.94-.93,11.46-2.81Z"/>
        <path class="cls-2" d="M726.15,27.55c4.32-2.79,9.45-4.18,15.41-4.18,5.65,0,10.75,1.32,15.3,3.95,4.54,2.64,8.09,6.38,10.66,11.23,2.56,4.85,3.84,10.48,3.84,16.9s-1.28,12.07-3.84,16.96c-2.56,4.89-6.11,8.67-10.66,11.34-4.55,2.67-9.64,4.01-15.3,4.01s-11-1.39-15.35-4.18c-4.35-2.79-7.52-6.28-9.51-10.48v43.31h-7.91V24.29h7.91v13.75c1.99-4.2,5.14-7.69,9.45-10.48ZM760.17,41.99c-2.02-3.78-4.79-6.66-8.31-8.65-3.51-1.98-7.49-2.98-11.91-2.98s-8.19,1.03-11.75,3.09c-3.55,2.06-6.36,5-8.42,8.82-2.06,3.82-3.09,8.25-3.09,13.29s1.03,9.47,3.09,13.29c2.06,3.82,4.87,6.76,8.42,8.82,3.55,2.06,7.47,3.09,11.75,3.09s8.4-1.01,11.91-3.04c3.51-2.02,6.28-4.96,8.31-8.82,2.02-3.86,3.04-8.35,3.04-13.46s-1.01-9.68-3.04-13.46Z"/>
      </g>
    </g>
  </g>
</svg>